<svg xmlns="http://www.w3.org/2000/svg" xmlns:xlink="http://www.w3.org/1999/xlink" width="88" height="80" viewBox="0 0 88 80">
  <defs>
    <linearGradient id="linear-gradient" y1="0.5" x2="1" y2="0.5" gradientUnits="objectBoundingBox">
      <stop offset="0" stop-color="#664bcd"/>
      <stop offset="1" stop-color="#00a9e1"/>
    </linearGradient>
    <linearGradient id="linear-gradient-2" x1="0" y1="0.5" x2="1" y2="0.5" xlink:href="#linear-gradient"/>
    <linearGradient id="linear-gradient-6" x1="0" y1="0.5" x2="1" y2="0.5" xlink:href="#linear-gradient"/>
    <linearGradient id="linear-gradient-7" x1="0" y1="0.5" x2="1" y2="0.5" xlink:href="#linear-gradient"/>
    <linearGradient id="linear-gradient-9" x1="0" y1="0.5" x2="1" y2="0.5" xlink:href="#linear-gradient"/>
  </defs>
  <g id="组_3234" data-name="组 3234" transform="translate(-352 -784)">
    <g id="组_3002" data-name="组 3002" transform="translate(0 -152)">
      <path id="路径_87" data-name="路径 87" d="M343.44,3178.506a1.9,1.9,0,0,0,1.6-.455,7.187,7.187,0,0,1,3.694-1.471,12.744,12.744,0,0,1,1.447-.032c.294,0,.582.011.87,0a1.406,1.406,0,0,0,.088-2.806,10.456,10.456,0,0,0-5.878.9l-.288.137a4.516,4.516,0,0,0-2.564,2.055v.632A1.732,1.732,0,0,0,343.44,3178.506Z" transform="translate(20.99 -2211.029)" fill="url(#linear-gradient)"/>
      <path id="路径_88" data-name="路径 88" d="M382.349,3173.575c.343.016.681.014,1.063.007l.592,0h.709l-.005,1.319c-.006.383-.012.743.008,1.1a1.429,1.429,0,1,0,2.846-.088c0-.344,0-.691,0-1.052v-1.3l1.359.008c.414.006.79.013,1.161-.013a1.411,1.411,0,1,0-.088-2.819c-.376-.009-.749-.008-1.14-.005l-1.286,0,0-1.208c0-.362.005-.7-.008-1.033a2.929,2.929,0,0,0-.08-.716,1.39,1.39,0,0,0-1.455-.969,1.3,1.3,0,0,0-1.253,1.135,13.638,13.638,0,0,0-.088,1.4c-.007.235-.013.474-.026.719l-.031.674h-1.205c-.363,0-.71,0-1.058,0a1.428,1.428,0,1,0-.017,2.84Z" transform="translate(32.227 -2213.034)" fill="url(#linear-gradient-2)"/>
      <path id="路径_89" data-name="路径 89" d="M354.254,3175.754a6.818,6.818,0,0,0,.129.754,1.443,1.443,0,0,0,1.323,1.152,1.242,1.242,0,0,0,1.371-.861,3.1,3.1,0,0,0,.034-.895c-.01-.176-.018-.352-.017-.525,0-.254-.006-.511-.014-.767a12.854,12.854,0,0,1,.036-1.766,8.619,8.619,0,0,1,2-4.221,1.415,1.415,0,1,0-2.219-1.757,11.431,11.431,0,0,0-2.769,7.494l.021.24C354.175,3174.917,354.21,3175.335,354.254,3175.754Z" transform="translate(24.423 -2213.183)" fill="url(#linear-gradient)"/>
      <path id="路径_90" data-name="路径 90" d="M356.285,3164.634c.188.011.379.01.564,0l.3,0,.622.01c.041-.006.083-.01.124-.015.586-.072,1.17-.142,1.743-.266a10.494,10.494,0,0,0,4.585-2.3,1.381,1.381,0,0,0,.441-1.7,1.3,1.3,0,0,0-1.473-.822,2.945,2.945,0,0,0-1.086.565,7.862,7.862,0,0,1-3.619,1.584,10.082,10.082,0,0,1-1.433.077c-.256,0-.513.006-.769.019a1.423,1.423,0,0,0,0,2.844Z" transform="translate(24.646 -2215.17)" fill="url(#linear-gradient)"/>
      <path id="路径_91" data-name="路径 91" d="M375.321,3167.24c-.23.1-.458.206-.68.315a1.412,1.412,0,0,0,.644,2.707l.065-.01a1.764,1.764,0,0,0,.34-.066,10.888,10.888,0,0,0,6.423-5.5,1.4,1.4,0,0,0-.674-1.94,1.324,1.324,0,0,0-.553-.124,1.65,1.65,0,0,0-1.306.759l-.292.4a12.874,12.874,0,0,1-1.946,2.3A8.023,8.023,0,0,1,375.321,3167.24Z" transform="translate(30.181 -2214.26)" fill="url(#linear-gradient)"/>
      <path id="路径_92" data-name="路径 92" d="M380.243,3172.689a2.167,2.167,0,0,0-2.151-2.157h-.049a2.156,2.156,0,0,0-1.515.622,2.121,2.121,0,0,0-.649,1.519,2.2,2.2,0,0,0,2.141,2.168h0A2.2,2.2,0,0,0,380.243,3172.689Z" transform="translate(30.793 -2211.944)" fill="url(#linear-gradient-6)"/>
      <path id="路径_93" data-name="路径 93" d="M348.427,3169.434h0a2.152,2.152,0,0,0,2.162-2.183,2.083,2.083,0,0,0-2.154-2.123h0a2.2,2.2,0,0,0-1.58.657,2.076,2.076,0,0,0-.609,1.505A2.194,2.194,0,0,0,348.427,3169.434Z" transform="translate(22.114 -2211.526)" fill="url(#linear-gradient-7)"/>
      <path id="路径_94" data-name="路径 94" d="M360.87,3169.758a2.169,2.169,0,0,0,.654,1.551,2.379,2.379,0,0,0,1.527.625,2.2,2.2,0,0,0,2.162-2.213,2.113,2.113,0,0,0-2.18-2.089h-.019A2.077,2.077,0,0,0,360.87,3169.758Z" transform="translate(26.397 -2212.793)" fill="url(#linear-gradient-2)"/>
      <path id="路径_95" data-name="路径 95" d="M390.238,3178.58h.019a2.177,2.177,0,0,0,1.561-.673,2.091,2.091,0,0,0,.6-1.516,2.15,2.15,0,0,0-2.167-2.113h-.026a2.151,2.151,0,1,0,.013,4.3Z" transform="translate(34.361 -2210.846)" fill="url(#linear-gradient-9)"/>
      <path id="路径_96" data-name="路径 96" d="M369.982,3173.575a10.586,10.586,0,1,0,10.319,10.581A10.464,10.464,0,0,0,369.982,3173.575Zm0,18.516a7.952,7.952,0,1,1,7.414-7.935A7.7,7.7,0,0,1,369.982,3192.091Z" transform="translate(26.044 -2209.842)" fill="#041e42"/>
      <path id="路径_97" data-name="路径 97" d="M376.814,3186.387a8.467,8.467,0,1,0,8.463-8.732A8.61,8.61,0,0,0,376.814,3186.387Zm14.021,0a5.579,5.579,0,1,1-5.558-6.057A5.83,5.83,0,0,1,390.835,3186.387Z" transform="translate(31.765 -2209.458)" fill="#041e42"/>
      <path id="路径_98" data-name="路径 98" d="M388.2,3212.265H356.671v-5.209a14.987,14.987,0,0,1,5.968-11.983,13.963,13.963,0,0,0,18.143,0,14.951,14.951,0,0,1,5.879,10.331,1.467,1.467,0,0,0,1.6,1.287,1.453,1.453,0,0,0,1.285-1.6A17.875,17.875,0,0,0,381.464,3192a1.454,1.454,0,0,0-1.8.174,11.146,11.146,0,0,1-15.909,0,1.451,1.451,0,0,0-1.8-.174,17.9,17.9,0,0,0-8.189,15.051v6.662a1.452,1.452,0,0,0,1.452,1.453H388.2a1.453,1.453,0,0,0,0-2.905Z" transform="translate(24.317 -2207.17)" fill="#041e42"/>
      <path id="路径_99" data-name="路径 99" d="M391.926,3192.278a1.451,1.451,0,0,0-1.8.174,8.774,8.774,0,0,1-6.081,2.553,1.453,1.453,0,0,0,0,2.905,11.525,11.525,0,0,0,7.178-2.565,11.547,11.547,0,0,1,4.411,9.09v3.815h-11.59a1.453,1.453,0,0,0,0,2.905H397.09a1.452,1.452,0,0,0,1.452-1.452v-5.269A14.456,14.456,0,0,0,391.926,3192.278Z" transform="translate(33.458 -2206.242)" fill="#041e42"/>
      <path id="路径_100" data-name="路径 100" d="M353.806,3177.655a9.014,9.014,0,1,0,8.463,9A8.752,8.752,0,0,0,353.806,3177.655Zm0,15.24c-3.066,0-5.56-2.8-5.56-6.241s2.494-6.241,5.56-6.241,5.558,2.8,5.558,6.241S356.872,3192.895,353.806,3192.895Z" transform="translate(21.151 -2209.65)" fill="#041e42"/>
      <path id="路径_101" data-name="路径 101" d="M347.637,3195.346a11.522,11.522,0,0,0,7.178,2.565,1.453,1.453,0,0,0,0-2.905,8.775,8.775,0,0,1-6.081-2.553,1.447,1.447,0,0,0-1.8-.175,14.457,14.457,0,0,0-6.616,12.158v5.269a1.453,1.453,0,0,0,1.452,1.452h13.043a1.453,1.453,0,0,0,0-2.906h-11.59v-3.815A11.546,11.546,0,0,1,347.637,3195.346Z" transform="translate(19.68 -2206.242)" fill="#041e42"/>
      <path id="路径_102" data-name="路径 102" d="M370.69,3171.886a2.621,2.621,0,0,0,1.279-2.653v-4.864l.46.008c.043-.007.084-.01.125-.016.584-.073,1.17-.143,1.743-.267a10.492,10.492,0,0,0,4.585-2.3,1.38,1.38,0,0,0,.44-1.7,1.3,1.3,0,0,0-1.471-.823,2.946,2.946,0,0,0-1.086.568,7.86,7.86,0,0,1-3.619,1.583,10.1,10.1,0,0,1-1.434.078c-.256,0-.513,0-.769.018l-.017,0s-.913,0-1.156.248c-.315.317-.546.525-.485,1.739.076,1.558.264,3.488.264,3.488a2.621,2.621,0,1,0,1.142,4.885Z" transform="translate(28.121 -2215.248)" fill="url(#linear-gradient)"/>
    </g>
    <rect id="矩形_504" data-name="矩形 504" width="88" height="80" transform="translate(352 784)" fill="none"/>
  </g>
</svg>
