<svg xmlns="http://www.w3.org/2000/svg" xmlns:xlink="http://www.w3.org/1999/xlink" width="88" height="80" viewBox="0 0 88 80">
  <defs>
    <linearGradient id="linear-gradient" y1="0.5" x2="1" y2="0.5" gradientUnits="objectBoundingBox">
      <stop offset="0" stop-color="#664bcd"/>
      <stop offset="1" stop-color="#00a9e1"/>
    </linearGradient>
    <linearGradient id="linear-gradient-2" x1="0" y1="0.5" x2="1" y2="0.5" xlink:href="#linear-gradient"/>
    <linearGradient id="linear-gradient-3" x1="-0.002" y1="0.664" x2="0.994" y2="0.664" xlink:href="#linear-gradient"/>
    <linearGradient id="linear-gradient-4" x1="0.11" y1="0.401" x2="1.111" y2="0.401" xlink:href="#linear-gradient"/>
    <linearGradient id="linear-gradient-5" x1="0.051" y1="-0.064" x2="1.05" y2="-0.064" xlink:href="#linear-gradient"/>
    <linearGradient id="linear-gradient-6" x1="0" y1="0.5" x2="1" y2="0.5" xlink:href="#linear-gradient"/>
    <linearGradient id="linear-gradient-7" x1="0" y1="0.5" x2="1" y2="0.5" xlink:href="#linear-gradient"/>
  </defs>
  <g id="组_3235" data-name="组 3235" transform="translate(-744 -784)">
    <g id="组_3001" data-name="组 3001" transform="translate(480 -144)">
      <path id="路径_103" data-name="路径 103" d="M627.918,3179.546c.358.016.711.015,1.109.008l.618,0h.74l-.005,1.375c-.007.4-.012.777.008,1.152a1.492,1.492,0,1,0,2.97-.091c0-.36,0-.72,0-1.1v-1.356l1.418.006c.432.007.825.015,1.212-.013a1.472,1.472,0,1,0-.092-2.941c-.393-.011-.781-.009-1.19-.006l-1.343,0,0-1.26c0-.379.005-.73-.008-1.08a3.06,3.06,0,0,0-.084-.748,1.453,1.453,0,0,0-1.518-1.012,1.363,1.363,0,0,0-1.308,1.185,14.214,14.214,0,0,0-.092,1.459c-.007.246-.013.5-.027.75l-.032.7-1.258,0c-.379,0-.741,0-1.1,0a1.49,1.49,0,1,0-.017,2.963Z" transform="translate(-293.457 -2218.934)" fill="url(#linear-gradient)"/>
      <path id="路径_104" data-name="路径 104" d="M592.594,3173.821a2.649,2.649,0,0,1,2.665,2.636,2.673,2.673,0,1,1-5.345-.029A2.615,2.615,0,0,1,592.594,3173.821Z" transform="translate(-311.106 -2218.464)" fill="url(#linear-gradient-2)"/>
      <path id="路径_105" data-name="路径 105" d="M590.162,3183.322l-4.942,5.3a1.3,1.3,0,0,0,.792,2.177l2.457.3a1.3,1.3,0,0,1,1.081,1.681l-.9,2.86a1.3,1.3,0,0,0,2.158,1.311l6.416-6.394a1.3,1.3,0,0,0-.758-2.212l-3.623-.445a1.3,1.3,0,0,1-1.062-1.74l.555-1.5A1.3,1.3,0,0,0,590.162,3183.322Z" transform="translate(-312.869 -2215.292)" fill="url(#linear-gradient-3)"/>
      <path id="路径_106" data-name="路径 106" d="M613.235,3166.927h0c-.208-2.807-.564-5.528-.773-7.01a.51.51,0,0,0-.9-.249c-1.12,1.38-3.251,4.005-4.433,5.46l-.024.031-.063.077c0,.007,0,.013,0,.02a3.279,3.279,0,0,0-.642,2.577,3.5,3.5,0,0,0,1.843,2.586,3.462,3.462,0,0,0,5-3.494Z" transform="translate(-300.494 -2223.478)" fill="url(#linear-gradient-4)"/>
      <path id="路径_107" data-name="路径 107" d="M617.855,3165.542h0c-.093-1.247-.235-2.465-.352-3.351a.6.6,0,0,0-1.069-.3l-2.116,2.607-.013.018-.038.044v.01a1.981,1.981,0,0,0-.325.64,2,2,0,1,0,3.914.328Z" transform="translate(-297.868 -2222.713)" fill="url(#linear-gradient-5)"/>
      <path id="路径_108" data-name="路径 108" d="M638.438,3169.775a1.762,1.762,0,0,0-1.282-.413l-35.194,2.856a1.62,1.62,0,0,0-1.539,1.587v33.744a8.421,8.421,0,0,0-4.853-1.509,7.791,7.791,0,1,0,8.219,7.779c0-.1-.007-.2-.015-.3l0-.117a.307.307,0,0,0,.02-.1v-38.036l31.829-2.583-.056,7.727-24.732,2.028a1.705,1.705,0,0,0-1.144.562,1.531,1.531,0,0,0-.389,1.161,1.661,1.661,0,0,0,1.675,1.458c.049,0,.1,0,.146-.007l24.444-2,.056,20.738a8.538,8.538,0,0,0-4.865-1.52,7.792,7.792,0,1,0,8.217,7.781l.013-39.659A1.566,1.566,0,0,0,638.438,3169.775Zm-38.015,44.044a4.861,4.861,0,1,1-4.853-4.593A4.735,4.735,0,0,1,600.424,3213.819Zm35.183-3.212a4.86,4.86,0,1,1-4.852-4.594A4.733,4.733,0,0,1,635.606,3210.607Z" transform="translate(-308.984 -2221.598)" fill="#041e42"/>
      <path id="路径_109" data-name="路径 109" d="M600.292,3171.018h.02a2.272,2.272,0,0,0,1.629-.7,2.184,2.184,0,0,0,.626-1.583,2.244,2.244,0,0,0-2.26-2.205h-.028a2.236,2.236,0,0,0-1.594,3.827A2.267,2.267,0,0,0,600.292,3171.018Z" transform="translate(-308.273 -2221.014)" fill="url(#linear-gradient-6)"/>
      <path id="路径_110" data-name="路径 110" d="M630.266,3188.914h.02a2.273,2.273,0,0,0,1.629-.7,2.184,2.184,0,0,0,.626-1.584,2.246,2.246,0,0,0-2.262-2.205h-.027a2.246,2.246,0,1,0,.013,4.491Z" transform="translate(-292.857 -2214.76)" fill="url(#linear-gradient-7)"/>
    </g>
    <rect id="矩形_505" data-name="矩形 505" width="88" height="80" transform="translate(744 784)" fill="none"/>
  </g>
</svg>
