<svg xmlns="http://www.w3.org/2000/svg" xmlns:xlink="http://www.w3.org/1999/xlink" width="72" height="64" viewBox="0 0 72 64">
  <defs>
    <linearGradient id="linear-gradient" y1="0.5" x2="1" y2="0.5" gradientUnits="objectBoundingBox">
      <stop offset="0" stop-color="#664bcd"/>
      <stop offset="1" stop-color="#00a9e1"/>
    </linearGradient>
  </defs>
  <g id="组_3004" data-name="组 3004" transform="translate(-280 -944)">
    <g id="组_3003" data-name="组 3003" transform="translate(280 944)">
      <path id="路径_83" data-name="路径 83" d="M908.109,3192.774a2.589,2.589,0,0,0-1.8.5c-.242.136-.488.267-.748.4l-1.52.818-.081-1.266a3.952,3.952,0,0,1,1.4-3.618,26.978,26.978,0,0,0,2.207-2.094c.283-.287.565-.574.85-.857a1.963,1.963,0,0,0,.667-1.35,1.343,1.343,0,0,0-.459-.979,1.608,1.608,0,0,0-2.348.208c-.247.239-.474.5-.725.778l-1.37,1.506-.443-1.33c-.424-1.275-.7-2.435.2-3.716.732-1.045,1.38-2.2,2.007-3.312l.412-.733a1.47,1.47,0,0,0-.515-2.132,1.555,1.555,0,0,0-2.122.634c-.21.324-.407.658-.614,1.009L902.055,3179s-1.959-3.161-1.443-4.59c.4-1.106.7-2.288.99-3.431l.282-1.089a1.531,1.531,0,0,0-1.047-2.016,1.568,1.568,0,0,0-1.92,1.24c-.1.358-.2.716-.307,1.083l-.5,1.793-.982-.789a3.818,3.818,0,0,1-1.673-3.475,27.749,27.749,0,0,0,.042-3.095l-.02-1.1a3.217,3.217,0,0,0-.1-.875,1.48,1.48,0,0,0-1.568-.98,1.459,1.459,0,0,0-1.348,1.342c-.031.444-.022.891-.015,1.37l.007,2.194-2.1-1.282c-.558-.344-1.068-.661-1.592-.956a1.878,1.878,0,0,0-.92-.257,1.461,1.461,0,0,0-1.273.723,1.49,1.49,0,0,0,.613,2.088c.218.14.443.273.668.4.361.213.721.425,1.06.667,8.8,6.284,12.8,14.731,11.9,25.1a25.713,25.713,0,0,1-6.848,15.207,28.2,28.2,0,0,1-8.659,6.425,3.07,3.07,0,0,0-1.1.878,1.328,1.328,0,0,0,.224,1.649,1.6,1.6,0,0,0,1.933.272,30.4,30.4,0,0,0,7.418-4.827,2.617,2.617,0,0,1,1.916-.7c1.741.025,3.478.026,5.224,0a1.861,1.861,0,0,0,1.308-.49,1.36,1.36,0,0,0,.392-1.013,1.533,1.533,0,0,0-1.7-1.459c-.392-.009-.781-.007-1.2,0h-2.007l.64-1.178a3.853,3.853,0,0,1,2.746-2.377c1.2-.221,2.423-.568,3.6-.9l1.043-.291a1.494,1.494,0,0,0,1.229-1.892,1.578,1.578,0,0,0-2.029-.985c-.4.1-.79.2-1.206.3l-1.855.469.283-1.274a3.693,3.693,0,0,1,2.068-3,22.438,22.438,0,0,0,2.108-1.139c.485-.287.974-.571,1.473-.834a3.029,3.029,0,0,0,1.439-1.294,3.532,3.532,0,0,0,0-.739A1.557,1.557,0,0,0,908.109,3192.774Z" transform="translate(-837.256 -3161.667)" fill="#041e42"/>
      <path id="路径_84" data-name="路径 84" d="M892.563,3218.666a23.272,23.272,0,0,0-8.218-1.343,27.019,27.019,0,0,1-17.82-7.138c-6.708-6.137-9.67-13.744-8.808-22.61a25.723,25.723,0,0,1,8.389-16.758,35.044,35.044,0,0,1,3.992-3.045q.582-.4,1.157-.8c.684-.484.948-.92.908-1.507a1.437,1.437,0,0,0-.76-1.2,1.643,1.643,0,0,0-1.568.046c-.546.3-1.071.624-1.627.971l-2.108,1.287v-1.841c0-.225,0-.412,0-.6l0-.436a4.875,4.875,0,0,0-.05-.91,1.5,1.5,0,0,0-1.462-1.108h-.058a1.42,1.42,0,0,0-1.429,1.305,47.778,47.778,0,0,0-.009,5.031,3.727,3.727,0,0,1-1.584,3.124l-1.006.944-.89-3.018a1.505,1.505,0,0,0-.8-1.049,1.529,1.529,0,0,0-2.157,1.863l.3,1.131c.319,1.219.648,2.479,1.055,3.677a2.859,2.859,0,0,1-.411,2.5,5.26,5.26,0,0,0-.3.6l-.62,1.524-1.657-2.736c-.093-.155-.182-.31-.286-.456a1.534,1.534,0,0,0-2.061-.5,1.433,1.433,0,0,0-.564,1.972c.835,1.512,1.657,3,2.589,4.353a3.211,3.211,0,0,1,.3,2.887c-.038.156-.078.316-.111.482l-.291,1.441-1.871-1.764c-.191-.187-.384-.376-.581-.559a1.583,1.583,0,0,0-2.255-.074,1.438,1.438,0,0,0,.063,2.146l.554.563c.881.9,1.793,1.833,2.756,2.64a3.817,3.817,0,0,1,1.307,3.542l-.1,1.252-1.737-.949c-.4-.225-.785-.443-1.186-.633a1.583,1.583,0,0,0-1.37-.032,1.508,1.508,0,0,0-.835,1.052,1.489,1.489,0,0,0,.862,1.655l1,.586c1.029.608,2.095,1.238,3.174,1.744a3.724,3.724,0,0,1,2,2.944l.326,1.3-3.054-.761a1.561,1.561,0,0,0-2.069.979,1.5,1.5,0,0,0,1.253,1.889l.973.269c1.229.344,2.5.7,3.753.945a3.653,3.653,0,0,1,2.56,2.233l.667,1.188-1.322.121-.75-.006c-.485-.006-.932-.013-1.381.013a1.358,1.358,0,0,0-1.311.985,1.391,1.391,0,0,0,.147,1.3,1.6,1.6,0,0,0,1.293.649c1,.029,2.006.026,3.011.025.862,0,1.726-.005,2.588.013a2.539,2.539,0,0,1,1.545.568,30.58,30.58,0,0,0,7.044,4.653c.764.36,1.541.691,2.337,1.03l2.323,1.005-1.181.994a2.467,2.467,0,0,0-.272.236c-.263.281-.534.559-.8.835a19.961,19.961,0,0,0-1.8,2.014,1.363,1.363,0,0,0-.182,1.4,1.586,1.586,0,0,0,1.3.9,1.554,1.554,0,0,0,1.452-.7l.226-.261a15.635,15.635,0,0,1,1.879-1.917,11.453,11.453,0,0,1,6.585-2.307q1.029-.083,1.979-.084a14.417,14.417,0,0,1,6.923,1.559,11.782,11.782,0,0,1,3.535,3.192,1.468,1.468,0,0,0,2.077.222,1.453,1.453,0,0,0,.334-1.986A12.99,12.99,0,0,0,892.563,3218.666Z" transform="translate(-849.3 -3161.666)" fill="#041e42"/>
      <path id="路径_85" data-name="路径 85" d="M858.208,3189.485c0,12.928,10.787,23.446,24.044,23.446s24.046-10.517,24.046-23.446-10.787-23.445-24.046-23.445S858.208,3176.556,858.208,3189.485Zm24.044-20.372c11.521,0,20.892,9.139,20.892,20.372s-9.371,20.372-20.892,20.372-20.892-9.139-20.892-20.372S870.733,3169.113,882.252,3169.113Z" transform="translate(-846.208 -3160.297)" fill="#041e42"/>
      <path id="路径_86" data-name="路径 86" d="M868.387,3199.913h3.645a3.109,3.109,0,0,0,1.578-.423l1.176.138a64.6,64.6,0,0,0,8.006.43c.727.054,1.412.083,2.048.083a14.286,14.286,0,0,0,2.9-.258,5.766,5.766,0,0,0,4.111-2.537,4.014,4.014,0,0,0,.509-2.292,4.189,4.189,0,0,0,1.328-3.276,4.518,4.518,0,0,0-.178-1.039,3.859,3.859,0,0,0,.764-2.439,3.99,3.99,0,0,0-.707-2.074,3.593,3.593,0,0,0-1.024-3.924c-1.075-.956-2.837-1.389-5.23-1.271a20.226,20.226,0,0,0-3.027.375c-.059.009-.119.021-.179.033a15.713,15.713,0,0,1,.665-2.474c.9-2.673.82-4.753-.241-6.181a4.455,4.455,0,0,0-3.527-1.678,2.1,2.1,0,0,0-1.607.716,4.141,4.141,0,0,0-.66,3.087c-1.043,2.693-3.09,6.986-4.6,8.117a1.252,1.252,0,0,0-.19.163,6.636,6.636,0,0,0-1.021,1.367,3.19,3.19,0,0,0-.9-.128h-3.645a3.051,3.051,0,0,0-3.087,3.008v9.47A3.052,3.052,0,0,0,868.387,3199.913Zm7.5-14.748c2.734-2.112,5.325-8.868,5.611-9.629a1.281,1.281,0,0,0,.066-.684,4.816,4.816,0,0,1-.044-.946,1.338,1.338,0,0,1,.73.474c.486.656.431,1.973-.156,3.711-1.1,3.263-1.14,4.954-.123,5.834a1.894,1.894,0,0,0,1.836.361c.352-.077.686-.146,1.111-.221,2.118-.449,4.91-.485,5.731.246a1.063,1.063,0,0,1,.108,1.374,1.329,1.329,0,0,0,.229,1.756,1.63,1.63,0,0,1,.478.963,1.6,1.6,0,0,1-.578,1.142h0a1.346,1.346,0,0,0-.267,1.511,1.218,1.218,0,0,0,.066.125,1.786,1.786,0,0,1,.2.724,1.761,1.761,0,0,1-.888,1.52,1.354,1.354,0,0,0-.484,1.537,1.424,1.424,0,0,1-.113,1.044,3.272,3.272,0,0,1-2.244,1.193,15.549,15.549,0,0,1-4.183.118l-.113,0h-.03a61.052,61.052,0,0,1-7.692-.41l-.022-9.478a3,3,0,0,0-.089-.72A4.176,4.176,0,0,1,875.888,3185.165Zm-7.775,2.263a.271.271,0,0,1,.274-.267h3.645a.27.27,0,0,1,.272.267v9.47a.27.27,0,0,1-.272.267h-3.7a.269.269,0,0,1-.217-.261Z" transform="translate(-843.745 -3158.709)" fill="url(#linear-gradient)"/>
    </g>
  </g>
</svg>
